# xmcd
#
# Track frame offsets:
#	150
#	19484
#	37192
#	53965
#	85258
#	99018
#	125658
#	137018
#	151581
#	168058
#	187790
#	202622
#
# Disc length: 2947 seconds
#
# Revision: 3
# Processed by: cddbd v1.5.2PL0 Copyright (c) Steve Scherf et al.
# Submitted via: EasyCDDAExtractor 16.0.6.1
#
DISCID=8b0b810c
DTITLE=Vargas Blues Band - R-696 Bluestrology
DYEAR=1998
DGENRE=Blues
TTITLE0=Backdoor man
TTITLE1=Troubled mind
TTITLE2=Wild west blues
TTITLE3=Barstool blues
TTITLE4=Blues magic
TTITLE5=Bluestrology
TTITLE6=Bound for Memphis
TTITLE7=Promised Land
TTITLE8=A little bit closer
TTITLE9=You've got to move
TTITLE10=Free Spirits
TTITLE11=Traveling South
EXTD=
EXTT0=
EXTT1=
EXTT2=
EXTT3=
EXTT4=
EXTT5=
EXTT6=
EXTT7=
EXTT8=
EXTT9=
EXTT10=
EXTT11=
PLAYORDER=
